<svg version="1.1" id="Layer_1" xmlns="http://www.w3.org/2000/svg" x="0" y="0" viewBox="0 0 360 100.67" xml:space="preserve"><style>.st0{fill:#61ba9e}.st1{fill:#2a473e}</style><path class="st0" d="M40 49.36c.54-.44 1.08-.86 1.62-1.26-1.09-.27-2.14-.48-3.13-.62-.06 1.03-.08 2.1-.04 3.22.49-.45 1.01-.9 1.55-1.34zm-2.2 8.78a42.883 42.883 0 01-.64-4.07c-.78.82-1.48 1.63-2.1 2.42a31.5 31.5 0 002.74 1.65zm-3.65-.41c-2.33 3.35-3.08 6.17-2.08 7.42.85 1.06 2.98 1.12 5.83.18.58-.19 1.18-.42 1.79-.68-.55-1.4-1.04-2.93-1.45-4.55-1.49-.74-2.87-1.54-4.09-2.37zm2.83-5.66c-.11-1.66-.11-3.27-.02-4.77-4.03-.36-6.83.4-7.4 1.9-.57 1.5 1.01 3.95 4.25 6.41.92-1.17 1.98-2.36 3.17-3.54zm10.35-7.51c-1.36-2.95-2.93-4.86-4.31-5.4-.36-.14-.7-.18-1.02-.13-1.33.21-2.46 2.04-3.07 5.01-.13.61-.23 1.24-.31 1.91 1.46.21 3.01.54 4.63 1 1.39-.94 2.76-1.74 4.08-2.39z"/><path class="st0" d="M61.62 17.42c-.33-.93-.66-1.69-1.01-2.56-.18-.44-.57-.6-1.18-.25-.75.42-1.48.77-2.39 1.26-8.63 4.65-23.26 13.5-30.6 26.24-6.4 11.38-11.17 31.7 8.63 35.56 20.52 9.72 29.11-4.72 31.01-23.58 1.23-12.3-.77-26.4-4.46-36.67zm-.75 43.9c-.88 2.31-4.33 3.28-8.97 2.87-.57 4.67-2.22 7.88-4.65 8.26-.6.1-1.2.02-1.81-.21-1.45-.56-2.9-2.04-4.21-4.34-.33-.57-.64-1.19-.94-1.84-.65.28-1.29.53-1.91.73-2.5.82-4.56.95-6 .39-.61-.24-1.11-.59-1.49-1.07-1.55-1.93-.65-5.42 2.02-9.28-3.72-2.83-5.65-5.88-4.77-8.19.88-2.31 4.32-3.28 8.96-2.87.08-.71.19-1.4.33-2.05.77-3.68 2.3-5.89 4.33-6.21 2.43-.39 4.98 2.15 6.95 6.41 4.29-1.84 7.86-2 9.41-.07 1.29 1.61.97 4.28-.9 7.54-.33.58-.7 1.16-1.11 1.75 3.72 2.83 5.64 5.87 4.76 8.18z"/><path class="st0" d="M47.07 48.23c.65.25 1.28.51 1.89.78-.31-1.09-.66-2.11-1.03-3.05-.89.45-1.83.97-2.78 1.57.64.22 1.28.45 1.92.7zm-5.13 13.5c-.65-.25-1.28-.51-1.89-.78.31 1.07.65 2.09 1.03 3.05.91-.46 1.85-.99 2.79-1.58-.64-.2-1.28-.43-1.93-.69zm13.26-7.37c-.92 1.18-1.99 2.37-3.17 3.53.11 1.68.11 3.28.01 4.77 4.04.36 6.84-.39 7.41-1.9.57-1.49-1.01-3.94-4.25-6.4zm.71-3.74c1.51-2.63 1.88-4.74 1.03-5.8-.21-.26-.49-.45-.85-.59-1.38-.53-3.81-.17-6.78 1.1.55 1.38 1.04 2.9 1.45 4.54 1.5.75 2.88 1.55 4.1 2.38.39-.55.74-1.1 1.05-1.63zm-4.69 1.2c.13.66.26 1.34.37 2.03.11.69.2 1.37.27 2.04.76-.8 1.47-1.61 2.1-2.42-.84-.55-1.75-1.11-2.74-1.65zm-9.54 13.6c.28.61.57 1.18.87 1.71 1.5 2.63 3.13 4.02 4.46 3.8 1.57-.25 2.89-2.86 3.38-6.92-1.46-.21-3.01-.54-4.62-1-1.37.94-2.75 1.74-4.09 2.41zm7.34-4.82c-.53.44-1.07.86-1.62 1.26 1.09.27 2.14.48 3.13.62.06-1.01.08-2.08.05-3.22-.51.46-1.03.91-1.56 1.34zm1.43-3.36c-.08-1.01-.21-2.06-.38-3.15a49.13 49.13 0 00-.61-3.16 42.277 42.277 0 00-4.7-1.9c-.42-.14-.84-.28-1.25-.4-.06.04-.12.09-.18.13-.15.11-.3.22-.46.33-.02.02-.04.03-.06.05-.19.14-.38.28-.57.43-.12.09-.24.19-.36.28l-.27.21c-.21.17-.43.34-.64.51-.42.35-.84.7-1.24 1.05-.05.04-.09.08-.14.12-.15.14-.31.27-.45.41l-.02.02c-.19.17-.37.34-.55.51v.05c.08 1.01.21 2.06.38 3.15.17 1.08.38 2.14.61 3.16a42.277 42.277 0 004.7 1.9c.42.14.84.28 1.25.4.06-.04.12-.09.18-.13.15-.11.3-.22.46-.33.02-.02.04-.03.06-.05.19-.14.38-.28.57-.43.12-.09.24-.19.36-.28l.27-.21c.21-.17.43-.34.64-.51.42-.35.84-.7 1.24-1.05.05-.04.09-.08.14-.12.15-.14.31-.27.46-.41l.02-.02c.19-.17.37-.34.55-.51 0-.02 0-.03-.01-.05zm-3.03-1.13a3.107 3.107 0 01-4.04 1.81c-1.61-.62-2.42-2.45-1.8-4.07a3.107 3.107 0 014.04-1.81c1.62.62 2.42 2.45 1.8 4.07z"/><path class="st1" d="M89.56 57.31v12h-6.63V38.04h9.11c4.25 0 7.39.77 9.43 2.32 2.04 1.55 3.06 3.9 3.06 7.05 0 1.84-.51 3.48-1.52 4.91-1.01 1.43-2.45 2.56-4.3 3.37 4.71 7.03 7.77 11.57 9.2 13.62h-7.36l-7.46-12h-3.53zm0-5.39h2.14c2.1 0 3.64-.35 4.64-1.05 1-.7 1.5-1.8 1.5-3.29 0-1.48-.51-2.54-1.53-3.17-1.02-.63-2.6-.94-4.74-.94h-2.01v8.45z"/><path class="st1" d="M118.65 69.73c-3.85 0-6.86-1.06-9.02-3.19-2.17-2.12-3.25-5.13-3.25-9.02 0-4.01 1-7.1 3-9.29 2-2.19 4.77-3.28 8.31-3.28 3.38 0 6.01.96 7.89 2.89 1.88 1.92 2.82 4.58 2.82 7.98v3.17h-15.42c.07 1.85.62 3.3 1.65 4.34 1.03 1.04 2.47 1.56 4.32 1.56 1.44 0 2.8-.15 4.08-.45 1.28-.3 2.62-.78 4.02-1.43v5.05c-1.14.57-2.36.99-3.66 1.27s-2.87.4-4.74.4zm-.92-20.14c-1.38 0-2.47.44-3.25 1.32s-1.23 2.12-1.35 3.73h9.15c-.03-1.61-.45-2.85-1.26-3.73-.81-.88-1.91-1.32-3.29-1.32zm29.41 19.71l-1.26-3.25h-.17c-1.1 1.38-2.23 2.34-3.39 2.88-1.16.53-2.68.8-4.54.8-2.3 0-4.1-.66-5.42-1.97-1.32-1.31-1.98-3.18-1.98-5.6 0-2.54.89-4.41 2.66-5.61 1.77-1.2 4.45-1.87 8.03-2l4.15-.13v-1.05c0-2.42-1.24-3.64-3.72-3.64-1.91 0-4.16.58-6.74 1.73l-2.16-4.41c2.75-1.44 5.8-2.16 9.15-2.16 3.21 0 5.67.7 7.38 2.1s2.57 3.52 2.57 6.37V69.3h-4.56zm-1.93-11.07l-2.52.09c-1.9.06-3.31.4-4.23 1.03-.93.63-1.39 1.58-1.39 2.87 0 1.84 1.05 2.76 3.17 2.76 1.51 0 2.72-.43 3.62-1.3.9-.87 1.36-2.02 1.36-3.46v-1.99zm20.28 11.5c-7.44 0-11.16-4.08-11.16-12.25 0-4.06 1.01-7.17 3.04-9.31 2.02-2.15 4.93-3.22 8.7-3.22 2.77 0 5.25.54 7.44 1.62l-1.92 5.05c-1.03-.41-1.98-.75-2.87-1.02a9.36 9.36 0 00-2.65-.4c-3.39 0-5.09 2.41-5.09 7.23 0 4.68 1.7 7.01 5.09 7.01 1.25 0 2.42-.17 3.49-.5 1.07-.33 2.14-.86 3.21-1.57v5.58c-1.06.67-2.12 1.13-3.2 1.39s-2.44.39-4.08.39zm22.01-5.19c1.14 0 2.51-.25 4.11-.75v4.85c-1.62.73-3.62 1.09-5.99 1.09-2.61 0-4.51-.66-5.7-1.98-1.19-1.32-1.79-3.3-1.79-5.93V50.29h-3.12v-2.76l3.59-2.18 1.88-5.05h4.17v5.09h6.69v4.9h-6.69v11.53c0 .93.26 1.61.78 2.05.52.44 1.21.67 2.07.67zm21.7 4.76V38.04h6.63v25.79h12.68v5.47H209.2zm32.42.43c-3.85 0-6.86-1.06-9.03-3.19-2.17-2.12-3.25-5.13-3.25-9.02 0-4.01 1-7.1 3-9.29 2-2.19 4.77-3.28 8.31-3.28 3.38 0 6.01.96 7.89 2.89s2.82 4.58 2.82 7.98v3.17h-15.42c.07 1.85.62 3.3 1.65 4.34 1.03 1.04 2.47 1.56 4.32 1.56 1.44 0 2.8-.15 4.08-.45s2.62-.78 4.02-1.43v5.05c-1.14.57-2.36.99-3.66 1.27-1.27.26-2.86.4-4.73.4zm-.92-20.14c-1.38 0-2.47.44-3.25 1.32-.79.88-1.23 2.12-1.35 3.73h9.15c-.03-1.61-.45-2.85-1.26-3.73s-1.9-1.32-3.29-1.32zm29.41 19.71l-1.26-3.25h-.17c-1.1 1.38-2.23 2.34-3.39 2.88-1.16.53-2.68.8-4.54.8-2.29 0-4.1-.66-5.42-1.97-1.32-1.31-1.98-3.18-1.98-5.6 0-2.54.89-4.41 2.66-5.61 1.77-1.2 4.45-1.87 8.03-2l4.15-.13v-1.05c0-2.42-1.24-3.64-3.72-3.64-1.91 0-4.16.58-6.74 1.73l-2.16-4.41c2.75-1.44 5.8-2.16 9.15-2.16 3.21 0 5.67.7 7.38 2.1s2.57 3.52 2.57 6.37V69.3h-4.56zm-1.92-11.07l-2.52.09c-1.9.06-3.31.4-4.23 1.03-.93.63-1.39 1.58-1.39 2.87 0 1.84 1.05 2.76 3.17 2.76 1.51 0 2.72-.43 3.62-1.3.91-.87 1.36-2.02 1.36-3.46v-1.99zm23.78-7.94h-5.65V69.3h-6.52V50.29h-3.59v-3.14l3.59-1.75v-1.75c0-2.72.67-4.71 2.01-5.97 1.34-1.25 3.49-1.88 6.44-1.88 2.25 0 4.26.33 6.01 1l-1.67 4.79c-1.31-.41-2.52-.62-3.64-.62-.93 0-1.6.28-2.01.82-.41.55-.62 1.25-.62 2.11v1.5h5.65v4.89zm10.27 19.01h-6.52V36.03h6.52V69.3zm15.01.43c-3.85 0-6.86-1.06-9.03-3.19-2.17-2.12-3.25-5.13-3.25-9.02 0-4.01 1-7.1 3-9.29 2-2.19 4.77-3.28 8.31-3.28 3.38 0 6.01.96 7.89 2.89s2.82 4.58 2.82 7.98v3.17h-15.42c.07 1.85.62 3.3 1.65 4.34 1.03 1.04 2.47 1.56 4.32 1.56 1.44 0 2.8-.15 4.08-.45s2.62-.78 4.02-1.43v5.05c-1.14.57-2.36.99-3.66 1.27-1.28.26-2.86.4-4.73.4zm-.92-20.14c-1.38 0-2.47.44-3.25 1.32-.79.88-1.23 2.12-1.35 3.73h9.15c-.03-1.61-.45-2.85-1.26-3.73s-1.9-1.32-3.29-1.32zm24.3 14.95c1.14 0 2.51-.25 4.11-.75v4.85c-1.62.73-3.62 1.09-5.99 1.09-2.61 0-4.51-.66-5.7-1.98-1.19-1.32-1.79-3.3-1.79-5.93V50.29h-3.12v-2.76l3.59-2.18 1.88-5.05h4.17v5.09h6.69v4.9h-6.69v11.53c0 .93.26 1.61.78 2.05.53.44 1.21.67 2.07.67z"/></svg>